<?xml version="1.0" encoding="UTF-8"?>
<svg id="Layer_1" data-name="Layer 1" xmlns="http://www.w3.org/2000/svg" viewBox="0 0 128 128">
  <path fill="#009140" d="m64,126.92..." />
  <path fill="#FFF400" d="m64,124.76..." />
  <path fill="#FFFFFF" d="m64,107.2..." />

  <circle cx="64" cy="64" r="64"/>
  <path class="cls-2" d="m64,126.92c-8.49,0-16.73-1.66-24.49-4.94-3.73-1.58-7.32-3.53-10.69-5.8-3.33-2.25-6.47-4.84-9.31-7.68-2.85-2.85-5.43-5.98-7.68-9.31-2.27-3.36-4.22-6.96-5.8-10.69-3.28-7.76-4.94-16-4.94-24.49s1.66-16.73,4.94-24.49c1.58-3.73,3.53-7.32,5.8-10.69,2.25-3.33,4.84-6.47,7.68-9.31,2.85-2.85,5.98-5.43,9.31-7.68,3.36-2.27,6.96-4.22,10.69-5.8,7.76-3.28,16-4.94,24.49-4.94s16.73,1.66,24.49,4.94c3.73,1.58,7.32,3.53,10.69,5.8,3.33,2.25,6.47,4.84,9.31,7.68,2.85,2.85,5.43,5.98,7.68,9.31,2.27,3.36,4.22,6.96,5.8,10.69,3.28,7.76,4.94,16,4.94,24.49s-1.66,16.73-4.94,24.49c-1.58,3.73-3.53,7.32-5.8,10.69-2.25,3.33-4.84,6.47-7.68,9.31-2.85,2.85-5.98,5.43-9.31,7.68-3.36,2.27-6.96,4.22-10.69,5.8-7.76,3.28-16,4.94-24.49,4.94h0Z"/>
  <path d="m64,125.84c-8.35,0-16.45-1.63-24.07-4.86-3.66-1.55-7.2-3.47-10.5-5.7-3.28-2.21-6.36-4.75-9.15-7.55s-5.34-5.88-7.55-9.15c-2.23-3.31-4.15-6.84-5.7-10.5-3.22-7.62-4.86-15.72-4.86-24.07s1.63-16.45,4.86-24.07c1.55-3.66,3.47-7.2,5.7-10.5,2.21-3.28,4.75-6.36,7.55-9.15,2.8-2.8,5.88-5.34,9.15-7.55,3.31-2.23,6.84-4.15,10.5-5.7,7.62-3.22,15.72-4.86,24.07-4.86s16.45,1.63,24.07,4.86c3.66,1.55,7.2,3.47,10.5,5.7,3.28,2.21,6.36,4.75,9.15,7.55,2.8,2.8,5.34,5.88,7.55,9.15,2.23,3.31,4.15,6.84,5.7,10.5,3.22,7.62,4.86,15.72,4.86,24.07s-1.63,16.45-4.86,24.07c-1.55,3.66-3.47,7.2-5.7,10.5-2.21,3.28-4.75,6.36-7.55,9.15s-5.88,5.34-9.15,7.55c-3.31,2.23-6.84,4.15-10.5,5.7-7.62,3.22-15.72,4.86-24.07,4.86h0Z"/>
  <path class="cls-3" d="m64,124.76c-8.2,0-16.16-1.61-23.65-4.77-3.6-1.52-7.07-3.41-10.32-5.6-3.22-2.17-6.24-4.67-9-7.42-2.75-2.75-5.25-5.78-7.42-9-2.19-3.25-4.08-6.72-5.6-10.32-3.17-7.49-4.77-15.45-4.77-23.65s1.61-16.16,4.77-23.65c1.52-3.6,3.41-7.07,5.6-10.32,2.17-3.22,4.67-6.24,7.42-9,2.75-2.75,5.78-5.25,9-7.42,3.25-2.19,6.72-4.08,10.32-5.6,7.49-3.17,15.45-4.77,23.65-4.77s16.16,1.61,23.65,4.77c3.6,1.52,7.07,3.41,10.32,5.6,3.22,2.17,6.24,4.67,9,7.42s5.25,5.78,7.42,9c2.19,3.25,4.08,6.72,5.6,10.32,3.17,7.49,4.77,15.45,4.77,23.65s-1.61,16.16-4.77,23.65c-1.52,3.6-3.41,7.07-5.6,10.32-2.17,3.22-4.67,6.24-7.42,9-2.75,2.75-5.78,5.25-9,7.42-3.25,2.19-6.72,4.08-10.32,5.6-7.49,3.17-15.45,4.77-23.65,4.77h0Z"/>
  <g>
    <path d="m25.91,33.44l-.89,1.09-3.43-2.81c-.45-.37-.76-.69-.94-.97-.23-.36-.32-.76-.29-1.2s.24-.88.62-1.34c.44-.53.93-.82,1.46-.86s1.09.17,1.67.65l-.73,1.13c-.32-.24-.58-.38-.77-.4-.29-.04-.54.06-.73.3-.2.24-.27.47-.22.69.06.22.3.5.74.86l3.5,2.87h0Z"/>
    <path d="m14.73,37.49l.81-1.31,1.67.32,1.48-2.38-1.04-1.33.79-1.27,4.5,6.02-.79,1.27-7.43-1.32h0Zm3.73-.75l2.72.56-1.71-2.18-1.01,1.62h0Z"/>
    <path d="m13.86,39.18l6.45,2.73-.82,1.95-4.9-.69,3.91,3.02-.83,1.95-6.45-2.73.51-1.21,5.08,2.15-4.54-3.43.53-1.25,5.62.87-5.08-2.15.51-1.21h0Z"/>
    <path d="m14.91,48.96l1.32.13,1.14.34-.42,1.4-1.14-.34-1.19-.58.28-.95h0Z"/>
    <path d="m9.77,50.61l6.82,1.59-.32,1.38-6.82-1.59.32-1.38h0Z"/>
    <path d="m8.72,56.03l2.92.38,4.35-2.02-.21,1.64-2.96,1.28,2.54,1.96-.21,1.62-3.7-3.08-2.91-.38.18-1.4h0Z"/>
    <path d="m8.16,63.58l2.95-.02,4.04-2.59v1.66s-2.75,1.66-2.75,1.66l2.78,1.6v1.63s-4.07-2.55-4.07-2.55l-2.94.02v-1.41s0,0,0,0Z"/>
    <path d="m9.06,74.65l-.2-1.53,1.5-.81-.35-2.78-1.65-.37-.19-1.49,7.29,1.82.19,1.48-6.59,3.67h0Zm2.42-2.93l2.46-1.29-2.7-.61.24,1.9h0Z"/>
    <path d="m9.49,76.48l6.74-1.9.38,1.36-2.65.75.75,2.67,2.65-.75.38,1.36-6.74,1.9-.38-1.36,2.95-.83-.75-2.67-2.95.83-.38-1.36h0Z"/>
    <path d="m13.24,87.54l6.16-3.33,1.01,1.86-3.6,3.39,4.8-1.17,1.01,1.87-6.16,3.33-.63-1.16,4.85-2.62-5.51,1.4-.65-1.2,4.19-3.84-4.85,2.62-.63-1.16h0Z"/>
    <path d="m21.73,100.64l-.93-1.22.89-1.45-1.7-2.22-1.62.51-.91-1.19,7.22-2.09.91,1.19-3.86,6.48h0Zm.62-3.75l1.48-2.35-2.64.83,1.16,1.52Z"/>
    <path d="m23.01,102.01l4.89-5.01.98.96-1.21,5.35,3.27-3.35.94.92-4.89,5.01-1.02-.99,1.17-5.24-3.19,3.27-.94-.92h0Z"/>
    <path d="m34.09,111.29l-1.25-.9.44-1.65-2.27-1.64-1.4.95-1.21-.88,6.32-4.07,1.21.88-1.84,7.32h0Zm-.48-3.77l.74-2.67-2.29,1.55,1.55,1.12h0Z"/>
    <path d="m41.14,114.05c.19.38.44.73.73,1.05l-.92.65c-.16-.15-.31-.33-.44-.52-.03-.04-.21-.37-.55-.98-.5-.03-1-.18-1.49-.43-.96-.49-1.56-1.16-1.81-2s-.12-1.77.41-2.79c.52-1.02,1.2-1.67,2.04-1.95s1.72-.19,2.65.29c.92.48,1.51,1.14,1.76,1.98s.11,1.77-.41,2.79c-.28.54-.6.97-.96,1.3-.27.25-.61.46-1.01.62h0Zm-.65-1.23c.26-.11.5-.27.72-.5s.42-.52.6-.86c.37-.72.49-1.34.35-1.86-.13-.52-.46-.91-.97-1.17-.51-.26-1.02-.3-1.52-.11s-.94.65-1.31,1.36c-.38.73-.5,1.35-.36,1.88s.44.91.93,1.16c.18.09.37.15.56.18-.17-.3-.36-.56-.58-.79l.72-.54c.34.35.63.77.86,1.25h0Z"/>
    <path d="m43.41,115.92l2.5-6.54,1.32.51-2.5,6.54-1.32-.51Z"/>
    <path d="m48.68,110.47l2.71.72c.54.14.93.27,1.18.39s.46.27.63.47.29.43.37.7.07.56,0,.85c-.08.32-.25.58-.49.8s-.53.36-.85.41c.38.23.64.52.79.87s.16.72.06,1.11c-.08.31-.23.59-.45.84s-.48.43-.77.54c-.29.11-.63.13-1,.08-.23-.04-.79-.17-1.66-.39l-2.3-.61,1.8-6.77h0Zm.35,4.18l-.48,1.81,1.26.34c.49.13.81.2.95.21.21.02.4-.03.57-.14s.28-.28.34-.52c.05-.2.05-.39,0-.56-.06-.17-.18-.31-.34-.42-.17-.11-.56-.25-1.19-.42l-1.1-.29h0Zm.72-2.69l-.42,1.56.9.24c.53.14.87.22,1,.24.24.03.45,0,.62-.1s.28-.26.34-.48c.06-.21.04-.39-.04-.56-.08-.16-.23-.29-.45-.38-.13-.05-.52-.16-1.16-.33l-.78-.21h0Z"/>
    <path d="m58.62,112.62l2.58.13c.58.03,1.02.1,1.32.2.4.14.74.37,1.02.7.28.32.48.71.61,1.17s.18,1.01.15,1.67c-.03.58-.13,1.07-.29,1.48-.2.5-.47.9-.81,1.2-.26.23-.6.4-1.02.51-.32.08-.74.11-1.26.08l-2.66-.14.36-6.99h0Zm1.35,1.26l-.24,4.63,1.05.05c.39.02.68.01.86-.02.23-.05.43-.13.58-.26.16-.13.29-.35.4-.66.11-.31.18-.73.21-1.27.03-.54,0-.96-.08-1.25-.08-.29-.2-.53-.37-.7-.16-.17-.38-.29-.64-.36-.2-.05-.58-.1-1.16-.13l-.63-.03h0Z"/>
    <path d="m72.72,119.27l-1.53.14-.76-1.53-2.79.26-.43,1.64-1.49.14,2.07-7.23,1.49-.14,3.44,6.72h0Zm-2.85-2.52l-1.2-2.5-.7,2.67,1.9-.18h0Z"/>
    <path d="m74.58,118.91l-1.66-6.8,1.34-.33,3.9,3.86-1.11-4.54,1.28-.31,1.66,6.8-1.38.34-3.83-3.77,1.09,4.44-1.28.31h0Z"/>
    <path d="m82.66,109.23l2.33-1.12c.52-.25.94-.41,1.26-.46.42-.07.83-.03,1.23.12.4.15.76.39,1.1.73.33.34.64.8.93,1.39.25.52.4,1,.45,1.44.06.53.02,1.02-.14,1.44-.12.32-.33.63-.65.94-.24.22-.59.45-1.06.68l-2.4,1.16-3.05-6.31h0Zm1.79.45l2.02,4.18.95-.46c.36-.17.6-.32.74-.43.18-.15.31-.32.39-.51s.09-.45.04-.77-.19-.73-.43-1.22c-.24-.49-.46-.84-.67-1.06-.21-.22-.43-.36-.66-.44-.23-.07-.47-.08-.73-.01-.2.05-.56.19-1.07.45l-.57.28h0Z"/>
    <path d="m92.44,112.15l-.71-1.06.55-5.82-2.72,1.81-.66-.99,4.27-2.84.61.92-.58,6.06,3.32-2.2.65.98-4.74,3.15h0Z"/>
    <path d="m98.52,107.89l-4.4-5.45,1.1-.89,4.4,5.45-1.1.89Z"/>
    <path d="m101.4,105.55l-4.94-4.96,1-1,2.19,2.2-.17-4.22,1.35-1.34.06,3.79,4.99,1.07-1.3,1.29-3.68-.97v1.64s1.51,1.5,1.51,1.5l-1,1h0Z"/>
    <path d="m107.06,99.66l-5.61-4.2,1.78-2.38c.45-.6.82-1,1.13-1.19s.65-.28,1.03-.25.74.17,1.07.42c.42.31.68.7.76,1.15.09.45-.01.95-.31,1.5.33-.14.63-.22.92-.25.29-.03.75-.02,1.39.04l1.61.13-1.01,1.35-1.83-.09c-.65-.04-1.08-.04-1.27-.02s-.36.08-.49.17-.3.26-.49.52l-.17.23,2.34,1.75-.85,1.13h0Zm-2.39-3.55l.63-.84c.41-.54.64-.9.69-1.07s.06-.33,0-.5c-.05-.16-.17-.3-.33-.43-.19-.14-.38-.2-.57-.19s-.37.1-.54.26c-.08.08-.29.35-.64.81l-.66.88,1.42,1.06h0Z"/>
    <path d="m105.64,89.68l.67-1.24,3.34,1.81c.53.29.88.46,1.05.51.28.08.55.07.81-.05.26-.12.49-.35.67-.7.19-.35.26-.66.22-.92s-.17-.46-.36-.61-.53-.36-1.02-.62l-3.41-1.84.67-1.24,3.24,1.75c.74.4,1.24.72,1.51.95.27.23.46.5.57.79s.15.63.11,1c-.04.37-.19.8-.45,1.29-.32.59-.63,1-.93,1.23s-.61.38-.92.43-.6.05-.87-.02c-.4-.11-.94-.35-1.63-.72l-3.29-1.78h0Z"/>
    <path d="m115.5,85.72l-6.5-2.44.5-1.32,5.4,2.03,1.24-3.29,1.1.42-1.73,4.62h0Z"/>
    <path d="m116.62,72.27l-1.17-.18.48-3.01,2.76.44c.24.34.42.8.55,1.39s.15,1.17.06,1.74c-.11.72-.37,1.33-.76,1.82-.39.49-.89.83-1.49,1.01s-1.24.22-1.91.11c-.72-.11-1.34-.37-1.85-.76s-.87-.9-1.08-1.53c-.16-.48-.19-1.05-.08-1.71.14-.86.42-1.5.86-1.93.44-.43.98-.66,1.64-.7l.04,1.43c-.35.04-.65.18-.89.42-.24.24-.39.56-.45.96-.1.61.02,1.13.35,1.55.33.42.88.69,1.64.81.82.13,1.47.05,1.93-.25.47-.3.75-.75.84-1.34.05-.29.04-.6-.03-.91-.07-.31-.17-.59-.3-.82l-.88-.14-.25,1.6h0Z"/>
    <path d="m119.81,67.23l-7-.05v-1.41s2.77.02,2.77.02l.02-2.77-2.76-.02v-1.41s7.01.05,7.01.05v1.41s-3.07-.02-3.07-.02l-.02,2.77,3.06.02v1.41s0,0,0,0Z"/>
    <path d="m116.32,59.81c-.71.1-1.31.08-1.82-.06-.38-.11-.72-.28-1.04-.51s-.57-.5-.75-.81c-.24-.41-.41-.89-.49-1.46-.15-1.02.05-1.88.6-2.59.55-.7,1.38-1.14,2.51-1.3,1.12-.16,2.04.02,2.76.54.72.52,1.15,1.29,1.3,2.3.15,1.03-.05,1.9-.59,2.59-.54.7-1.36,1.13-2.47,1.29h0Zm-.25-1.44c.78-.11,1.35-.38,1.71-.8s.49-.91.41-1.47-.35-.99-.8-1.29-1.08-.39-1.89-.28c-.79.11-1.36.37-1.7.78-.34.4-.47.9-.39,1.47s.35,1.01.79,1.31c.45.3,1.07.39,1.87.27h0Z"/>
    <path d="m118.23,50.45l-6.72,1.97-1.35-4.61,1.14-.33.95,3.25,1.59-.47-.82-2.81,1.14-.33.82,2.81,2.86-.84.4,1.36h0Z"/>
    <path d="m116.14,43.96l-6.51,2.6-.52-1.31,6.51-2.6.52,1.31h0Z"/>
    <path d="m114.74,40.55l-6.18,3.17-.65-1.26,5.13-2.63-1.61-3.13,1.05-.54,2.25,4.39h0Z"/>
    <path d="m111.48,34.6l-5.91,3.77-.76-1.19,5.91-3.77.76,1.19h0Z"/>
    <path d="m109.48,31.48l-5.48,4.36-.86-1.08,1.88-5.15-3.66,2.91-.82-1.03,5.48-4.36.88,1.11-1.82,5.05,3.57-2.84.82,1.03Z"/>
  </g>
  <path d="m64,107.2c-5.84,0-11.5-1.14-16.81-3.39-2.56-1.08-5.02-2.42-7.33-3.98-2.29-1.55-4.45-3.33-6.41-5.29-1.96-1.96-3.74-4.12-5.29-6.41-1.56-2.31-2.9-4.77-3.98-7.33-2.25-5.31-3.39-10.97-3.39-16.81s1.14-11.5,3.39-16.81c1.08-2.55,2.42-5.02,3.98-7.33,1.55-2.29,3.33-4.45,5.29-6.41s4.12-3.74,6.41-5.29c2.31-1.56,4.77-2.9,7.33-3.98,5.31-2.25,10.97-3.39,16.81-3.39s11.5,1.14,16.81,3.39c2.55,1.08,5.02,2.42,7.33,3.98,2.29,1.55,4.45,3.33,6.41,5.29,1.96,1.96,3.74,4.12,5.29,6.41,1.56,2.31,2.9,4.77,3.98,7.33,2.25,5.31,3.39,10.97,3.39,16.81s-1.14,11.5-3.39,16.81c-1.08,2.55-2.42,5.02-3.98,7.33-1.55,2.29-3.33,4.45-5.29,6.41-1.96,1.96-4.12,3.74-6.41,5.29-2.31,1.56-4.77,2.9-7.33,3.98-5.31,2.25-10.97,3.39-16.81,3.39h0Z"/>
  <path class="cls-2" d="m64,106.12c-5.7,0-11.21-1.11-16.39-3.3-2.49-1.05-4.9-2.36-7.15-3.88-2.24-1.51-4.34-3.24-6.25-5.16-1.91-1.91-3.65-4.01-5.16-6.25-1.52-2.25-2.83-4.66-3.88-7.15-2.19-5.18-3.3-10.69-3.3-16.39s1.11-11.21,3.3-16.39c1.05-2.49,2.36-4.9,3.88-7.15,1.51-2.24,3.24-4.34,5.16-6.25,1.91-1.91,4.01-3.65,6.25-5.16,2.25-1.52,4.65-2.83,7.15-3.88,5.18-2.19,10.69-3.3,16.39-3.3s11.21,1.11,16.39,3.3c2.49,1.05,4.9,2.36,7.15,3.88,2.24,1.51,4.34,3.24,6.25,5.16,1.91,1.91,3.65,4.01,5.16,6.25,1.52,2.25,2.83,4.66,3.88,7.15,2.19,5.18,3.3,10.69,3.3,16.39s-1.11,11.21-3.3,16.39c-1.05,2.49-2.36,4.9-3.88,7.15-1.51,2.23-3.24,4.34-5.16,6.25-1.91,1.91-4.01,3.65-6.25,5.16-2.25,1.52-4.65,2.83-7.15,3.88-5.18,2.19-10.69,3.3-16.39,3.3Z"/>
  <g>
    <path class="cls-1" d="m49.17,91.55l1.09.61-1.93,3.44c-.25.45-.48.77-.7.97-.28.26-.62.4-1,.44-.39.04-.81-.08-1.26-.33-.54-.3-.86-.68-.99-1.14-.12-.46-.02-.98.3-1.57l1.1.46c-.16.32-.24.56-.23.74,0,.26.13.46.38.6.24.14.46.16.64.08.18-.08.39-.34.64-.78l1.96-3.51h0Z"/>
    <path class="cls-1" d="m54.37,100.39l-1.29-.46-.04-1.51-2.35-.83-.96,1.16-1.26-.45,4.37-5.05,1.25.45.26,6.7h0Zm-1.36-3.1l-.03-2.46-1.57,1.9,1.6.57h0Z"/>
    <path class="cls-1" d="m55.87,100.74l.84-6.17,1.86.25.55,4.36,1.68-4.06,1.87.25-.84,6.17-1.16-.16.66-4.86-1.89,4.69-1.2-.16-.56-5.02-.66,4.86-1.16-.16h0Z"/>
    <path class="cls-1" d="m69.53,101.22l-1.36.09-.63-1.38-2.48.16-.42,1.44-1.33.08,2.03-6.37,1.33-.08,2.88,6.06h0Zm-2.47-2.31l-1-2.25-.69,2.36,1.7-.11h0Z"/>
    <path class="cls-1" d="m70.96,100.91l-1.46-6,1.22-.3,1.21,4.98,3.04-.74.25,1.02-4.26,1.03h0Z"/>
    <path class="cls-1" d="m76.53,99.37l-2.17-5.83,1.18-.44,2.17,5.83-1.18.44Z"/>
    <path class="cls-1" d="m79.4,98.3l-2.93-5.49,1.08-.58,4.2,2.47-1.96-3.67,1.03-.55,2.93,5.49-1.11.59-4.12-2.4,1.91,3.58-1.03.55h0Z"/>
  </g>
  <g>
    <path d="m31.75,21.44c.3-.23.66-.38,1.07-.44.41-.06.81-.01,1.19.16.38.17.69.41.93.72.38.5.53,1.07.44,1.69s-.38,1.13-.88,1.51c-.5.38-1.07.53-1.69.44-.62-.09-1.13-.38-1.51-.88-.24-.32-.39-.68-.45-1.09-.06-.41,0-.81.17-1.19s.41-.68.72-.91h0Z"/>
    <path d="m41.72,21.21l-3.08-6.94,1.36-.6,4.89,3.37-2.06-4.63,1.3-.58,3.08,6.94-1.41.62-4.8-3.28,2.01,4.52-1.3.58h0Z"/>
    <path d="m51.97,14.5l-.31-1.24,3.21-.79.72,2.94c-.24.38-.62.76-1.16,1.13-.53.38-1.11.64-1.71.79-.77.19-1.48.19-2.13.01s-1.2-.54-1.63-1.07c-.44-.53-.74-1.15-.91-1.86-.19-.77-.2-1.49-.02-2.16.18-.68.53-1.25,1.08-1.72.41-.36.97-.63,1.67-.8.91-.23,1.68-.21,2.29.05.61.26,1.07.71,1.38,1.35l-1.41.64c-.19-.34-.46-.57-.8-.71-.34-.14-.72-.16-1.15-.05-.65.16-1.12.49-1.4,1s-.32,1.16-.12,1.98c.22.87.57,1.48,1.07,1.82.5.34,1.06.43,1.69.28.31-.08.61-.21.89-.41.28-.2.52-.41.7-.64l-.23-.93-1.7.42h0Z"/>
    <path d="m64.56,15.73l-1.66.11-.77-1.68-3.03.2-.51,1.76-1.62.11,2.45-7.76,1.62-.11,3.53,7.37h0Zm-3.01-2.81l-1.23-2.74-.84,2.88,2.07-.13h0Z"/>
    <path d="m65.94,15.85l.67-7.5,1.53.14-.55,6.22,3.79.34-.11,1.27-5.32-.47h0Z"/>
    <path d="m79.48,18.25l-1.62-.41-.22-1.83-2.94-.74-1.03,1.52-1.58-.4,4.72-6.63,1.57.4,1.09,8.1h0Zm-2-3.6l-.33-2.99-1.68,2.48,2.01.51h0Z"/>
    <path d="m80.71,18.74l3.08-6.94,1.4.62-1.21,2.73,2.74,1.22,1.21-2.73,1.4.62-3.08,6.94-1.4-.62,1.35-3.03-2.74-1.22-1.35,3.03-1.4-.62Z"/>
    <path d="m96.26,21.44c.3.23.54.53.71.91.17.38.23.77.17,1.19-.06.41-.21.78-.45,1.09-.38.5-.88.8-1.51.88-.62.09-1.19-.06-1.69-.44-.5-.38-.8-.88-.88-1.51-.09-.62.06-1.19.44-1.69.24-.32.55-.56.93-.72.38-.17.78-.22,1.19-.15s.77.21,1.07.44h0Z"/>
  </g>
  <g>
    <polygon class="cls-1" points="98.81 61.17 99.51 63.33 101.79 63.33 99.95 64.67 100.65 66.83 98.81 65.49 96.97 66.83 97.67 64.67 95.84 63.33 98.11 63.33 98.81 61.17"/>
    <polygon class="cls-1" points="29.19 61.17 29.89 63.33 32.17 63.33 30.33 64.67 31.03 66.83 29.19 65.49 27.35 66.83 28.05 64.67 26.21 63.33 28.49 63.33 29.19 61.17"/>
  </g>
  <g>
    <polygon points="63.98 79.19 42.56 87.62 42.56 81.86 63.98 73.43 63.98 79.19"/>
    <polygon class="cls-1" points="43.18 82.28 63.36 74.34 63.36 78.77 43.18 86.71 43.18 82.28"/>
    <polygon points="43.8 82.7 62.75 75.24 62.75 78.35 43.8 85.81 43.8 82.7"/>
    <polygon class="cls-2" points="44.41 83.12 62.13 76.15 62.13 77.93 44.41 84.9 44.41 83.12"/>
    <polygon points="64.02 79.19 85.44 87.62 85.44 81.86 64.02 73.43 64.02 79.19"/>
    <polygon class="cls-1" points="84.82 82.28 64.64 74.34 64.64 78.77 84.82 86.71 84.82 82.28"/>
    <polygon points="84.2 82.7 65.25 75.24 65.25 78.35 84.2 85.81 84.2 82.7"/>
    <polygon class="cls-2" points="83.59 83.12 65.87 76.15 65.87 77.93 83.59 84.9 83.59 83.12"/>
    <g>
      <polygon points="40.82 76.67 44.56 45.35 64.01 45.41 83.44 45.35 87.18 76.67 64 81.67 40.82 76.67"/>
      <path d="m44.59,45.38l19.42.05,19.4-.05,3.74,31.27-23.15,4.99-23.15-4.99,3.74-31.27m38.87-.05l-19.45.05-19.47-.05-3.75,31.37,23.21,5,23.21-5-3.75-31.37h0Z"/>
    </g>
    <polygon class="cls-1" points="49.05 77.75 64 80.96 64 79.82 49.05 76.61 49.05 77.75"/>
    <polygon class="cls-1" points="78.95 77.75 64 80.96 64 79.82 78.95 76.61 78.95 77.75"/>
    <g>
      <path d="m63.82,45.2c-.09-.11-2.23-2.58-5.53-2.58-2.49,0-4.32.84-6.27,1.73-.59.27-1.2.55-1.84.81-1.89.77-3.6.91-3.62.91l-.52.04-2.99,32.18h.68c.11,0,2.8,0,4.95-.39,1.41-.25,2.69-.71,3.94-1.16,1.72-.61,3.34-1.2,5.14-1.2,2.31,0,5.22,2.19,5.25,2.21l.99.75-.02-33.13-.16-.18h0Z"/>
      <path d="m81.95,46.11l-.52-.04s-1.73-.14-3.62-.91c-.64-.26-1.25-.54-1.84-.81-1.95-.89-3.78-1.73-6.27-1.73-3.29,0-5.44,2.48-5.53,2.58l-.16.18-.02,33.13.99-.75s2.94-2.21,5.25-2.21c1.8,0,3.42.58,5.14,1.2,1.24.45,2.53.91,3.94,1.16,2.15.39,4.83.39,4.95.39h.68l-2.99-32.18h0Z"/>
    </g>
    <path class="cls-1" d="m63.36,45.6l.03,31.66s-3.07-2.34-5.63-2.34c-3.26,0-5.91,1.78-9.19,2.36-2.12.38-4.84.38-4.84.38l2.88-30.98s1.79-.14,3.81-.95c2.7-1.1,4.78-2.5,7.88-2.5s5.06,2.36,5.06,2.36Z"/>
    <path d="m47.18,47.24c.7-.1,2.03-.35,3.47-.93.66-.27,1.29-.56,1.89-.83,1.9-.87,3.54-1.62,5.76-1.62s3.95,1.5,4.44,1.99l.03,30.26c-1.17-.73-3.18-1.79-5.01-1.79-2.02,0-3.82.64-5.56,1.27-1.2.43-2.43.87-3.74,1.11-1.41.25-3.12.33-4.05.36l2.77-29.8h0Z"/>
    <path class="cls-1" d="m47.75,47.77c.76-.14,1.91-.4,3.13-.9.68-.27,1.31-.56,1.92-.84,1.83-.84,3.42-1.57,5.5-1.57,1.83,0,3.24,1.1,3.82,1.64l.03,28.92c-1.28-.69-2.87-1.33-4.39-1.33-2.12,0-3.97.66-5.76,1.3-1.17.42-2.38.85-3.64,1.08-1.07.19-2.34.28-3.26.32l2.66-28.63h0Z"/>
    <path class="cls-1" d="m64.64,45.6l-.03,31.66s3.07-2.34,5.63-2.34c3.26,0,5.91,1.78,9.19,2.36,2.12.38,4.84.38,4.84.38l-2.88-30.98s-1.79-.14-3.81-.95c-2.7-1.1-4.78-2.5-7.88-2.5s-5.06,2.36-5.06,2.36Z"/>
    <path d="m80.82,47.24c-.7-.1-2.03-.35-3.47-.93-.66-.27-1.29-.56-1.89-.83-1.9-.87-3.54-1.62-5.76-1.62s-3.95,1.5-4.44,1.99l-.03,30.26c1.17-.73,3.18-1.79,5.01-1.79,2.02,0,3.82.64,5.56,1.27,1.2.43,2.43.87,3.74,1.11,1.41.25,3.12.33,4.05.36l-2.77-29.8h0Z"/>
    <path class="cls-1" d="m80.25,47.77c-.76-.14-1.91-.4-3.13-.9-.68-.27-1.31-.56-1.92-.84-1.83-.84-3.42-1.57-5.5-1.57-1.83,0-3.24,1.1-3.82,1.64l-.03,28.92c1.28-.69,2.87-1.33,4.39-1.33,2.12,0,3.97.66,5.76,1.3,1.17.42,2.38.85,3.64,1.08,1.07.19,2.34.28,3.26.32l-2.66-28.63h0Z"/>
  </g>
  <polygon class="cls-1" points="64 24.37 65.31 28.39 69.53 28.39 66.11 30.87 67.42 34.89 64 32.41 60.58 34.89 61.89 30.87 58.47 28.39 62.69 28.39 64 24.37"/>
  <g>
    <polygon class="cls-1" points="81.17 31.13 81.87 33.3 84.15 33.3 82.31 34.63 83.01 36.79 81.17 35.46 79.33 36.79 80.03 34.63 78.2 33.3 80.47 33.3 81.17 31.13"/>
    <polygon class="cls-1" points="46.83 31.13 47.53 33.3 49.8 33.3 47.97 34.63 48.67 36.79 46.83 35.46 44.99 36.79 45.69 34.63 43.85 33.3 46.13 33.3 46.83 31.13"/>
  </g>
  <g>
    <polygon class="cls-1" points="91.01 38.28 91.71 40.44 93.99 40.44 92.15 41.78 92.85 43.94 91.01 42.6 89.17 43.94 89.87 41.78 88.03 40.44 90.31 40.44 91.01 38.28"/>
    <polygon class="cls-1" points="36.99 38.28 37.69 40.44 39.97 40.44 38.13 41.78 38.83 43.94 36.99 42.6 35.15 43.94 35.85 41.78 34.01 40.44 36.29 40.44 36.99 38.28"/>
  </g>
  <g>
    <polygon class="cls-1" points="97.02 48.68 97.72 50.84 99.99 50.84 98.15 52.17 98.86 54.33 97.02 53 95.18 54.33 95.88 52.17 94.04 50.84 96.31 50.84 97.02 48.68"/>
    <polygon class="cls-1" points="30.98 48.68 31.69 50.84 33.96 50.84 32.12 52.17 32.82 54.33 30.98 53 29.14 54.33 29.85 52.17 28.01 50.84 30.28 50.84 30.98 48.68"/>
  </g>
</svg>