<?xml version="1.0" encoding="UTF-8"?>
<svg id="Layer_1" data-name="Layer 1" xmlns="http://www.w3.org/2000/svg" xmlns:xlink="http://www.w3.org/1999/xlink" viewBox="0 0 128 128">
  <defs>
    <style>
      .cls-1 {
        fill: #065606;
      }

      .cls-2 {
        fill: url(#linear-gradient);
      }
    </style>
    <linearGradient id="linear-gradient" x1="0" y1="63.82" x2="128" y2="63.82" gradientUnits="userSpaceOnUse">
      <stop offset="0" stop-color="#80af81"/>
      <stop offset="1" stop-color="#749e70"/>
    </linearGradient>
  </defs>
  <g>
    <path class="cls-2" d="m122.99,17.82H5.01C2.24,17.82,0,19.72,0,22.06v45.03l21.48-34.11c.81-1.04,2.39-1.04,3.2,0l59.29,76.84h4.09l-36.87-47.78,22.05-15.96c.75-.63,1.85-.63,2.61,0l52.14,48.32V22.06c0-2.34-2.24-4.24-5.01-4.24Z"/>
    <path class="cls-1" d="m73.25,46.08l-22.05,15.96,36.87,47.78h34.92c2.77,0,5.01-1.9,5.01-4.24v-11.18l-52.14-48.32c-.75-.63-1.85-.63-2.61,0Z"/>
    <path class="cls-1" d="m21.48,32.97L0,67.09v38.5C0,107.92,2.24,109.82,5.01,109.82h78.97L24.69,32.97c-.81-1.04-2.39-1.04-3.2,0Z"/>
  </g>
  <ellipse class="cls-1" cx="104.12" cy="43.73" rx="11.13" ry="11.54"/>
  <path class="cls-1" d="m86.16,30.53c-.3-.55-.73-1.05-1.29-1.5-.56-.45-1.23-.82-2.01-1.1-.78-.28-1.65-.42-2.6-.42-1.16,0-2.16.13-3,.4-.84.27-1.53.62-2.07,1.05-.16.13-.31.27-.45.41-.12-.12-.25-.23-.39-.34-.56-.45-1.23-.82-2.01-1.1-.78-.28-1.65-.42-2.6-.42-1.16,0-2.16.13-3,.4-.84.27-1.53.62-2.07,1.05-.54.43-.94.91-1.19,1.42-.26.51-.39,1.01-.39,1.5,0,.6.13,1.03.39,1.31.26.28.55.42.89.42.21,0,.42-.07.64-.2.21-.13.45-.36.71-.7.39-.51.78-.93,1.18-1.25.4-.32.83-.56,1.3-.72.47-.16,1.02-.24,1.64-.24s1.1.08,1.52.23c.42.15.8.38,1.13.69.33.31.66.7.99,1.18.21.3.41.52.6.66.24.23.51.34.81.34.21,0,.42-.07.64-.2.21-.13.45-.36.71-.7.39-.51.78-.93,1.18-1.25.4-.32.83-.56,1.3-.72.47-.16,1.02-.24,1.64-.24s1.1.08,1.52.23c.42.15.8.38,1.13.69.33.31.66.7.99,1.18.27.38.51.63.74.76.22.13.45.2.66.2.32,0,.61-.12.85-.36.24-.24.36-.59.36-1.03,0-.54-.15-1.09-.45-1.64Z"/>
  <path class="cls-1" d="m65.7,42.29c-.3-.55-.73-1.05-1.29-1.5-.56-.45-1.23-.82-2.01-1.1-.78-.28-1.65-.42-2.6-.42-1.16,0-2.16.13-3,.4-.84.27-1.53.62-2.07,1.05-.16.13-.31.27-.45.41-.12-.12-.25-.23-.39-.34-.56-.45-1.23-.82-2.01-1.1-.78-.28-1.65-.42-2.6-.42-1.16,0-2.16.13-3,.4-.84.27-1.53.62-2.07,1.05-.54.43-.94.91-1.19,1.42-.26.51-.39,1.01-.39,1.5,0,.6.13,1.03.39,1.31.26.28.55.42.89.42.21,0,.42-.07.64-.2.21-.13.45-.36.71-.7.39-.51.78-.93,1.18-1.25.4-.32.83-.56,1.3-.72.47-.16,1.02-.24,1.64-.24s1.1.08,1.52.23c.42.15.8.38,1.13.69.33.31.66.7.99,1.18.21.3.41.52.6.66.24.23.51.34.81.34.21,0,.42-.07.64-.2.21-.13.45-.36.71-.7.39-.51.78-.93,1.18-1.25.4-.32.83-.56,1.3-.72.47-.16,1.02-.24,1.64-.24s1.1.08,1.52.23c.42.15.8.38,1.13.69.33.31.66.7.99,1.18.27.38.51.63.74.76.22.13.45.2.66.2.32,0,.61-.12.85-.36.24-.24.36-.59.36-1.03,0-.54-.15-1.09-.45-1.64Z"/>
</svg>