<?xml version="1.0" encoding="UTF-8"?>
<svg id="Layer_1" data-name="Layer 1" xmlns="http://www.w3.org/2000/svg" viewBox="0 0 128 128">
  <defs>
    <style>
      .cls-1 {
        fill: #065606;
      }

      .cls-2 {
        fill: #fff;
      }

      .cls-3 {
        fill: #723b28;
      }

      .cls-4 {
        fill: #ffe5c2;
      }

      .cls-5 {
        fill: #818181;
      }

      .cls-6 {
        fill: #ffe06e;
      }

      .cls-7 {
        fill: #ffd13e;
      }

      .cls-8 {
        fill: #fed2a4;
      }

      .cls-9 {
        fill: #88533a;
      }

      .cls-10 {
        fill: #595959;
      }

      .cls-11 {
        fill: #7fae80;
      }
    </style>
  </defs>
  <path d="m59.8,0h5.92c4.42,0,8,3.58,8,8v4.28h-21.92v-4.28c0-4.42,3.58-8,8-8Z"/>
  <path class="cls-4" d="m63.36,28.78h-1.18c-5.72,0-10.36-4.64-10.36-10.36v-6.16h21.92v6.16c0,5.72-4.64,10.36-10.36,10.36h-.02Z"/>
  <path class="cls-8" d="m68.88,12.28h4.84v6.14s.18,2.32-1.28,4.98-3.56,3.78-3.56,3.78v-14.92.02Z"/>
  <path class="cls-11" d="m78.58,77.18h-41.98v-30.6s.36-5.14,6.54-11.32,13.36-6.44,13.36-6.44h12.42s4.28.02,10.72,4.42c6.42,4.4,7.04,6.74,7.04,6.74l11.02.06s.26,2.12.26,6.48v6.48l-19.36-.16v24.34h-.02Z"/>
  <rect class="cls-1" x="60.78" y="28.78" width="4.86" height="19.32"/>
  <path class="cls-1" d="m78.5,77.1h-6.54s.68-40.16,0-42.1-5.62-6.22-5.62-6.22h2.54s1.28-.16,4.4,1.06c3.12,1.22,5.26,2.68,5.26,2.68l-.06,44.6.02-.02Z"/>
  <path class="cls-1" d="m47.46,48.1h.36v29h-6.56v-22.8c0-3.42,2.78-6.2,6.2-6.2Z"/>
  <path class="cls-1" d="m97.92,52.98h-3.18v-12.96h2.92s3.46,1.32,3.44,6.66c0,5.34-3.18,6.3-3.18,6.3Z"/>
  <path class="cls-8" d="m90.1,40v-1.3c0-1.98,1.6-3.58,3.58-3.58h.4c1.98,0,3.58,1.6,3.58,3.58v1.3h-7.56Z"/>
  <rect class="cls-3" x="91.5" y="1.38" width="3.24" height="75.72"/>
  <rect class="cls-5" x="7.42" y="75.6" width="113.16" height="13"/>
  <rect class="cls-10" x="113.06" y="75.6" width="7.52" height="13"/>
  <rect class="cls-9" x="28.7" y="108.3" width="70.64" height="19.7"/>
  <rect class="cls-9" x="28.7" y="88.6" width="70.64" height="19.7"/>
  <polygon class="cls-9" points="28.7 108.3 20.86 88.6 28.7 88.6 28.7 108.3"/>
  <polygon class="cls-9" points="99.34 108.3 107.18 88.6 99.34 88.6 99.34 108.3"/>
  <rect class="cls-3" x="38.38" y="109.1" width="4.4" height="18.9"/>
  <rect class="cls-3" x="85.04" y="109.1" width="4.4" height="18.9"/>
  <rect class="cls-3" x="94.94" y="108.3" width="4.4" height="19.7"/>
  <polygon class="cls-3" points="99.34 108.3 94.94 108.3 102.5 88.6 107.18 88.6 99.34 108.3"/>
  <ellipse class="cls-6" cx="64" cy="82.1" rx="13.14" ry="13.46"/>
  <rect class="cls-2" x="55.48" y="79.84" width="17.06" height="4.54" rx="2.14" ry="2.14"/>
  <path class="cls-7" d="m64,68.64c-.78,0-1.54.08-2.28.2,6.16,1.1,10.86,6.62,10.86,13.26s-4.7,12.16-10.86,13.26c.74.14,1.5.2,2.28.2,7.26,0,13.14-6.02,13.14-13.46s-5.88-13.46-13.14-13.46Z"/>
</svg>