<?xml version="1.0" encoding="UTF-8"?>
<svg id="Layer_1" data-name="Layer 1" xmlns="http://www.w3.org/2000/svg" viewBox="0 0 128 128">
  <defs>
    <style>
      .cls-1 {
        fill: #065606;
      }

      .cls-2 {
        fill: #7fae80;
      }
    </style>
  </defs>
  <path class="cls-1" d="m128,29c0,16.02-12.98,29-29,29h-29v-29c0-16.02,12.98-29,29-29s29,12.98,29,29Z"/>
  <path class="cls-2" d="m99,128c-16.02,0-29-12.98-29-29v-29h29c16.02,0,29,12.98,29,29s-12.98,29-29,29Z"/>
  <path class="cls-1" d="m29,0c16.02,0,29,12.98,29,29v29h-29C12.98,58,0,45.02,0,29S12.98,0,29,0Z"/>
  <path class="cls-1" d="m0,99c0-16.02,12.98-29,29-29h29v29c0,16.02-12.98,29-29,29S0,115.02,0,99Z"/>
</svg>