<?xml version="1.0" encoding="UTF-8"?>
<svg id="Layer_1" data-name="Layer 1" xmlns="http://www.w3.org/2000/svg" viewBox="0 0 128 128">
  <defs>
    <style>
      .cls-1 {
        fill: #7b7c7f;
      }

      .cls-2 {
        fill: #e5303e;
      }

      .cls-3 {
        fill: #065606;
      }

      .cls-4 {
        fill: #fbbf13;
      }

      .cls-5 {
        fill: #fdd402;
      }

      .cls-6 {
        fill: #b72732;
      }

      .cls-7 {
        fill: #030;
      }

      .cls-8 {
        fill: #e0e0e2;
      }
    </style>
  </defs>
  <path class="cls-3" d="m17.53,109.3V8.74c0-4.83,3.91-8.74,8.74-8.74h83.07v100.56"/>
  <path class="cls-7" d="m21.91,8.74c0-4.83,3.91-8.74,8.74-8.74h-4.37c-4.83,0-8.74,3.91-8.74,8.74v100.56l4.37-.42V8.74Z"/>
  <path class="cls-8" d="m27.4,100.56h83.07v21.86H27.4c-4.83,0-8.74-3.91-8.74-8.74v-4.37c0-4.83,3.91-8.74,8.74-8.74Z"/>
  <path class="cls-1" d="m21.91,113.67v-4.37c0-4.83,3.91-8.74,8.74-8.74h-4.37c-4.83,0-8.74,3.91-8.74,8.74v4.37c0,4.83,3.91,8.74,8.74,8.74h4.37c-4.83,0-8.74-3.91-8.74-8.74Z"/>
  <path class="cls-2" d="m43.77,128l-8.74-4.37-8.74,4.37v-17.16h17.49v17.16Z"/>
  <path class="cls-6" d="m30.65,110.84h-4.37v17.16l4.37-2.19v-14.98Z"/>
  <path class="cls-5" d="m26.12,17.49v61.21c4.83,0,8.74,3.91,8.74,8.74,0,1.54-.43,3.05-1.21,4.37h54.89c-.79-1.32-1.2-2.83-1.21-4.37,0-4.83,3.91-8.74,8.74-8.74,1.54,0,3.05.43,4.37,1.21V16.28c-1.32.79-2.83,1.2-4.37,1.21-4.83,0-8.74-3.91-8.74-8.74h-52.47c0,4.83-3.91,8.74-8.74,8.74Z"/>
  <path class="cls-4" d="m30.65,78.7V17.49c4.83,0,8.74-3.91,8.74-8.74h-4.37c0,4.83-3.91,8.74-8.74,8.74v61.21c4.83,0,8.74,3.91,8.74,8.74,0,1.54-.43,3.05-1.21,4.37h4.37c.79-1.32,1.2-2.83,1.21-4.37,0-4.83-3.91-8.74-8.74-8.74Z"/>
  <g>
    <path class="cls-3" d="m58.43,31.48c.67,0,1,.66,1,1.97.94,10.67,1.41,16.4,1.41,17.19,0,2.43-1.72,4.05-5.17,4.87-1.23.39-2.38.59-3.46.59-2.22,0-3.71-.77-4.48-2.31-.41-1.08-.69-1.61-.85-1.61-.39,0-.88.49-1.46,1.46-.97,1.2-1.81,2.17-2.51,2.92-1.9,1.21-5.08,1.82-9.56,1.82h-1.51c-.94-.07-1.41-.31-1.41-.72v-.15c0-.84,1.51-1.37,4.54-1.59,1.96-.27,3.65-.69,5.07-1.26.82-.39,1.47-.86,1.95-1.41,1.35-1.81,2.48-3.15,3.38-4.02.61-.48,1.15-.72,1.61-.72h.18c.87,0,1.72.94,2.56,2.82.73,1.14,1.59,1.72,2.56,1.72,1.3,0,2.78-.38,4.43-1.15.7-.43,1.05-.96,1.05-1.61-.91-10.95-1.36-16.61-1.36-16.98,0-.79.54-1.39,1.61-1.82h.41Z"/>
    <path class="cls-3" d="m76.49,55.38c0,3.28-2.59,5.83-7.76,7.66-3.19,1.13-6.32,1.69-9.38,1.69-.87,0-1.63-.1-2.28-.31s-.97-.43-.97-.67c0-.44.57-.77,1.72-.97,3.96-.75,6.72-1.41,8.27-1.97,4.94-1.78,7.4-3.35,7.4-4.71,0-.43-.2-.64-.61-.64-2.61,0-3.92-.67-3.92-2,0-.94.36-1.82,1.08-2.64.73-.82,1.62-1.23,2.66-1.23,1.23,0,2.25.91,3.07,2.74.48,1.11.72,2.13.72,3.05Zm1.13,0h-1.59c-1.01,0-1.51-.5-1.51-1.51s.5-1.49,1.51-1.49h1.59c1.01,0,1.51.5,1.51,1.49s-.5,1.51-1.51,1.51Z"/>
    <path class="cls-3" d="m96.37,47.15c-.1,1.21-.7,2.2-1.79,2.97-1.66,1.16-4.33,2.31-8.02,3.45s-6.63,1.7-8.84,1.7c-1.02,0-1.54-.51-1.54-1.54s.51-1.54,1.54-1.54c1.3,0,3.07-.27,5.33-.82,2.58-.63,4.63-1.38,6.15-2.25-.05-.29-.08-.59-.08-.9,0-.91.26-1.84.77-2.79.32-.6.89-.91,1.69-.95h.26c.27,0,.57.02.9.05,2.43.27,3.64,1.08,3.64,2.43v.18Z"/>
  </g>
</svg>