<?xml version="1.0" encoding="UTF-8"?>
<svg id="Layer_1" data-name="Layer 1" xmlns="http://www.w3.org/2000/svg" viewBox="0 0 128 128">
  <defs>
    <style>
      .cls-1 {
        fill: #2d1606;
      }

      .cls-2 {
        fill: #80af81;
      }

      .cls-3 {
        fill: #e5d9aa;
      }

      .cls-4 {
        fill: #0f3d0e;
      }

      .cls-5 {
        fill: #1a5319;
      }

      .cls-6 {
        fill: #49270e;
      }

      .cls-7 {
        fill: #f2e8bb;
      }
    </style>
  </defs>
  <g id="Layer_1-2" data-name="Layer 1-2">
    <g>
      <path class="cls-6" d="m121.18,91.54v22.51c0,2.31-1.88,4.17-4.19,4.14-.36,0-.72-.05-1.06-.14l-43.5-12.07-8.42-2.35,57.15-12.09h.02Zm-57.24,12.09l-8.42,2.35-43.5,12.07c-2.22.59-4.51-.72-5.09-2.94-.09-.34-.14-.7-.14-1.06v-22.55s57.15,12.14,57.15,12.14Z"/>
      <path class="cls-1" d="m6.77,91.5l57.15,12.14-8.42,2.35-48.73-10.37s0-4.12,0-4.12Zm114.41.05v4.12l-48.73,10.33-8.42-2.35,57.15-12.09Z"/>
      <path class="cls-5" d="m0,86.72V24.5c0-2.29,1.86-4.12,4.12-4.12.29,0,.59.02.86.09l59.01,12.77,59.01-12.77c2.22-.48,4.44.93,4.91,3.17.07.29.09.57.09.86v62.27c0,1.95-1.36,3.65-3.28,4.05l-60.75,12.84L3.26,90.75c-1.9-.41-3.26-2.08-3.26-4.03h0Z"/>
      <path class="cls-4" d="m112.4,83.8l-48.46,11.64-48.46-11.64c-1.86-.45-3.17-2.11-3.17-4.01V18.07c0-2.29,1.86-4.12,4.12-4.12.32,0,.66.05.95.11l46.53,11.16,46.55-11.19c2.22-.52,4.44.84,4.98,3.06.07.32.11.63.11.95v61.72c0,1.9-1.31,3.58-3.17,4.01v.02Z"/>
      <path class="cls-7" d="m108.26,79.66l-44.33,11.64-48.46-19.88c-1.86-.45-3.17,6.16-3.17,4.26V13.92c.02-2.26,1.86-4.12,4.14-4.12.32,0,.66.05.95.11l46.53,11.16,46.55-11.16c2.22-.52,4.44.84,4.98,3.06.07.32.11.63.11.95l-4.12,61.72c0,1.9-1.31,3.58-3.17,4.01h-.02Z"/>
      <path class="cls-3" d="m108.26,79.66l-44.33,11.64V21.08l46.55-11.16c2.22-.52,4.44.84,4.98,3.06.07.32.11.63.11.95v52.58l-4.12,9.13c0,1.9-1.31,3.58-3.17,4.01l-.02.02Z"/>
      <path class="cls-2" d="m15.47,79.66l48.46,11.64v-2.63c0-5.73-3.92-10.71-9.51-12.05l-42.12-10.12v9.13c0,1.9,1.31,3.58,3.17,4.01v.02Zm48.46,11.64l48.46-11.64c1.86-.45,3.17-2.11,3.17-4.01v-9.13l-42.12,10.12c-5.57,1.34-9.51,6.32-9.51,12.05v2.63-.02Zm11.57-36.12c-1.13,0-2.06-.93-2.06-2.06,0-.95.63-1.77,1.56-1.99l28.69-7.18c1.11-.27,2.22.41,2.51,1.49.27,1.11-.41,2.22-1.49,2.51h0l-28.69,7.18c-.16.05-.34.07-.5.07l-.02-.02Zm0-12.39c-1.13,0-2.06-.93-2.06-2.06,0-.95.63-1.77,1.56-1.99l28.69-7.18c1.11-.27,2.22.41,2.51,1.49.27,1.11-.41,2.22-1.49,2.51l-28.69,7.18c-.16.05-.34.07-.5.07l-.02-.02Zm0-12.39c-1.13,0-2.06-.93-2.06-2.06,0-.95.63-1.77,1.56-1.99l28.69-7.18c1.11-.27,2.22.41,2.51,1.49.27,1.11-.41,2.22-1.49,2.51l-28.69,7.18c-.16.05-.34.07-.5.07l-.02-.02Zm0,37.18c-1.13,0-2.06-.93-2.06-2.06,0-.95.63-1.77,1.56-1.99l28.69-7.18c1.11-.27,2.22.41,2.51,1.49.27,1.11-.41,2.22-1.49,2.51l-28.69,7.18c-.16.05-.34.07-.5.07l-.02-.02Zm-25-12.39c-.16,0-.34,0-.5-.07l-28.69-7.18c-1.11-.29-1.74-1.43-1.45-2.54.29-1.06,1.36-1.72,2.45-1.47l28.69,7.18c1.11.27,1.79,1.4,1.49,2.51-.23.91-1.04,1.56-1.99,1.56h0Zm0-12.39c-.16,0-.34,0-.5-.07l-28.69-7.18c-1.11-.29-1.74-1.43-1.45-2.54.29-1.06,1.36-1.72,2.45-1.47l28.69,7.18c1.11.27,1.79,1.4,1.49,2.51-.23.91-1.04,1.56-1.99,1.56h0Zm0-12.39c-.16,0-.34,0-.5-.07l-28.69-7.18c-1.11-.29-1.74-1.43-1.45-2.54.29-1.06,1.36-1.72,2.45-1.47l28.69,7.18c1.11.27,1.79,1.4,1.49,2.51-.23.91-1.04,1.56-1.99,1.56h0Zm0,37.18c-.16,0-.34,0-.5-.07l-28.69-7.18c-1.11-.29-1.74-1.43-1.45-2.54.29-1.06,1.36-1.72,2.45-1.47l28.69,7.18c1.11.27,1.79,1.4,1.49,2.51-.23.91-1.04,1.56-1.99,1.56h0Z"/>
    </g>
  </g>
</svg>