<?xml version="1.0" encoding="UTF-8"?>
<svg id="Layer_1" data-name="Layer 1" xmlns="http://www.w3.org/2000/svg" viewBox="0 0 128 128">
  <defs>
    <style>
      .cls-1 {
        fill: #2d2827;
      }

      .cls-1, .cls-2, .cls-3, .cls-4, .cls-5 {
        fill-rule: evenodd;
      }

      .cls-2 {
        fill: #1a1a1a;
      }

      .cls-3 {
        fill: #f9c;
      }

      .cls-4 {
        fill: #54c3e8;
      }

      .cls-5 {
        fill: #f8c89c;
      }
    </style>
  </defs>
  <g id="Layer_1-2" data-name="Layer_1">
    <path class="cls-1" d="m67.47,27.2c0,3.69,1,9.23,2.09,11.97.91,2.3,1.35,2.5.53,5.33-.51,1.77-1.57,3.37-2.69,4.49-5.24,5.27-8.16,6.02-13.6,10.76-2.6,2.27-2.04,2.15.24,5.55-.56,2.4-5,9.44-5,19.68v3.75c0,6.35,3.48,15.15,9.06,15.62,0,6.29-.63,11.83-.63,18.43,0,.72.22.94.94.94h58.72c.51,0,.94-.19.94-.63,0-6.51-.62-12.13-.62-18.43,4.31,0,6.97-3.53,8.7-6.94.97-2.16,1.75-8.47,1.83-10.85.19-5.31-1.05-10.2-2.53-15.2-.42-1.27-1.77-4.99-2.69-6.05,1.41-2.11,2.85-3.3,1.51-4.92-.64-.77-1.24-1.1-2.03-1.74-5.86-4.73-14.37-8.68-15.65-15.61-.78-4.22,2.74-5.29,2.74-16.46,0-6.54-1.98-12.01-4.95-15.67-8.31-10.24-29.98-10.03-35.51,6.75-.77,2.33-1.39,6.31-1.39,9.23h0Z"/>
    <path class="cls-3" d="m85.55,7.02c-11.92,1.57-17.12,11.99-15,25.46,1.58,10.05,8.99,22.42,20.61,19.93,19.71-4.22,23.63-49.24-5.61-45.39h0Z"/>
    <path class="cls-3" d="m55.06,62.14c2.76,6.85,23.88,10.72,27.56,9.86.54-3.91-.11-15.59,5.79-10.17l1.2-.99c3.08-1.58,3.92,2.04,4.16,4.62.21,2.3.33,4.55.56,6.83,9.51-.37,24.66-3.45,27.57-10.14-2.07-2.57-9.1-6.33-14.27-11.41-1.81-1.78-1.86-3.24-3.29-5.35-1.62,1.42-5.83,9.81-15.93,9.8-10.02-.01-14.09-8.18-15.88-9.84-4.76,10.29-12.18,10.84-17.47,16.8h0Z"/>
    <path class="cls-1" d="m85.43,14.32c-19.13,4.3-11.34,39.55,6.09,34.39,16.72-4.94,14.11-38.94-6.09-34.39Z"/>
    <path class="cls-3" d="m81.23,91.5c-.31-1.36-2.99-7.25-3.76-7.99-4.55,3.93-20.7,8.07-19.45,2.58,1.41-.44,2.41-.04,4.08.03.57-3.62.63-10.73,1.85-13.39,1.18-.2,1-.2,1.94.3l-1.24,12.85c3.57-.25,8.3-2.18,10.55-3.84.81-.6,1.08-1.18,1.8-1.65,1.73-1.12,1.25.41,2.31-.79.55-.62,2.17-3.85,2.48-4.92-11.81-1.45-16.77-2.28-25.56-7.4-3.01,3.04-7.89,22.4-1.48,31.95,5.94,8.86,23.12-4.44,26.49-7.74h0Z"/>
    <path class="cls-3" d="m95.29,74.74c.16,1.22,1.62,3.98,2.29,4.79,1.07,1.29.54-.04,2.04.74.88.46,4.05,4.63,12.61,5.65-.18-2.51-.45-5-.74-7.49-.29-2.46-1.54-5.44.93-5.84,1.84,1.32,2.01,10.86,2.38,13.46,2.12.19,4.49-1.28,4.19,1.77-2.61,1.55-7.67.75-10.82-.13-4.47-1.26-5.73-2.57-8.85-4.21l-3.77,8.08c1.29,1.21,3.88,3.09,5.49,4.2,5.43,3.75,15.83,10.12,20.93,3.71,3.02-3.8,3.79-10.64,3.3-16.39-.57-6.75-2.41-10.3-4.25-15.68-.98.39-.47.17-1.35.75-7.08,4.69-15.87,6.09-24.38,6.61h0Z"/>
    <path class="cls-3" d="m60.85,104.91l-.88,16.3h27.25c0-8.55.29-23.77-.05-31.54-.41.33-2.7,1.75-2.93,2.03-1.22,1.55.65-.05-2.55,2.77-11.13,9.81-18.78,9.52-20.84,10.44h0Z"/>
    <path class="cls-3" d="m89.71,121.14l25.83.07-.75-16.46c-6.23-2.34-6.32-1.08-13.91-6.06-7.83-5.13-7.64-6.79-8.73-7.5l-2.42-1.55v31.49h-.01Z"/>
    <path class="cls-5" d="m85.86,22.63c-2.51.32-7.34,1.72-8.38,3.29-2.85,4.28,1.37,23.91,13.47,20.35,5.15-1.52,8.74-7.7,9.12-14.42.29-5.06-.08-6.37-4.03-7.96-3.12-1.25-6.63-1.72-10.18-1.27h0Z"/>
    <path class="cls-5" d="m93.71,89.03c.91-.95,2.97-5.84,3.14-6.66-1.87-1.54-3.69-5.11-4.58-8.17-.76-2.61-.76-5.63-.98-8.38-.03-.37-.07-1.08-.14-1.41l-.68-1.37c-1.24,3.64-.75,9.94-.58,14.11.17,4.13-.54,11,3.83,11.89h0Z"/>
    <path class="cls-5" d="m83.09,88.98c4.24-.5,3.76-7.09,3.93-11.21.17-4.08.81-11.39-.75-14.67-1.65,2.08.94,8.87-4.54,17.35-.51.8-1.59,1.72-1.51,2.48.04.44,2.41,5.39,2.88,6.05Z"/>
    <path class="cls-3" d="m79.09,21.92c9.07-2.8,9.7-2.5,18.65-.04-3.25-7.15-15.44-7.15-18.65.04h0Z"/>
    <path class="cls-2" d="m84.14,39.48c.26,1,2.69,2.07,4.48,1.98,4.09-.22,4.72-3.5,2.82-3.15-.64.12-2.72,2.75-5.66.32-.78-.64-1.94-.31-1.64.85h0Z"/>
    <path class="cls-2" d="m96.73,30.33c-.17-1.13-1.79-2.35-2.98-2.24-2.73.25-3.15,3.96-1.88,3.57.42-.13,1.81-3.12,3.77-.36.52.73,1.29.36,1.09-.97h0Z"/>
    <path class="cls-2" d="m85.33,30.33c-.17-1.13-1.79-2.35-2.98-2.24-2.73.25-3.15,3.96-1.88,3.57.42-.13,1.81-3.12,3.77-.36.52.73,1.29.36,1.09-.97h0Z"/>
  </g>
  <g id="Layer_1-3" data-name="Layer_1">
    <path class="cls-1" d="m9.58,106.84c0,5.58-.62,10.24-.62,15.93,0,.72.22.94.94.94h54.03c1.74,0,1.19-2.13,1.03-3.2l-.71-13.35c6.93-.15,11.24-8.95,11.24-16.24,0-10.85-2.81-21-9.83-28.59-1.14-1.23-3.47-3.05-4.86-3.88-2.07-1.23-3.61-2.02-6.01-3.05-1.88-.8-4.08-1.93-5.72-3.02-1.21-.8-4.18-3.3-4.18-4.88,0-1.48,2.9-1.12,6.47-6.02.31-.42.8-1.27,1-1.5,1.22-1.37,1.31-.16,3.68-1.32,5.04-2.46,4.38-10.1-1.48-11.47,0-3.21.56-6.56.88-9.43.64-5.75,1.17-4.12-10.57-9.94-6.69-3.32-5.94-4.65-10.72-1.98l-14.01,7.24c-1.25,1.27.68,9.65.68,14.1-5.96,1.39-6.24,8.86-1.68,11.36,3.32,1.82,2.15-.9,4.76,2.74,1.29,1.8,1.86,2.41,3.7,3.79,1.73,1.3,5.57,1.86-.17,6.52-5.38,4.37-15.29,5.01-21.59,15.89C2.78,73.42.25,80.81.02,87.27c-.24,6.94,1.58,17.71,9.56,19.57h0Z"/>
    <path class="cls-4" d="m30.11,94.04c-.27-1.35-1.13-2.7-1.85-4-.65-1.18-1.4-3.06-2.13-3.88-2.24,1.35-3.25,3.04-7.91,4.35-1.76.5-3.62.75-5.52.66-2.31-.12-3.76-.11-3.16-2.49,1.37-.44,2.63-.05,4.32-.03.63-3.36.72-12.73,2.41-13.24,3.29-.99.01,7.96.32,12.88,9.17-2.55,6.55-4.97,10.55-5.58,1.22-.19,2.09-2.16,2.61-3.17,4.16-8.28.5-17.62,6.62-15.87l.07-3.98c-2.47-.91-6.65-.66-8.74-4.95-1.35.59-3.04,1.53-4.55,2.28-5.45,2.72-8.17,3.3-12.77,8.46-3.86,4.34-7.18,12.84-7.81,20.65-.62,7.63,1.47,18.71,9.52,18.38,5.47-.23,15.55-7.22,18.03-10.48h0Z"/>
    <path class="cls-4" d="m39.16,59.59l-.22,4.07c6.28-1.73,2.62,7.92,6.59,15.66.39.76,1.62,3.01,2.31,3.3.93.39.64-.37,1.86.33.56.33,3.46,4.32,9.19,5.31-.17-2.46-.48-5.03-.79-7.44-.32-2.51-1.77-5.95,1.59-5.31,1.14,3.38,1.09,9.12,1.84,13.11,1.74.02,2.92-.41,4.32.05,1.16,4.4-9.22,2.73-14.76-1.16-.78-.55-1.06-.93-1.84-1.36-.82.79-1.61,2.78-2.14,3.86-.69,1.4-1.49,2.69-1.88,4.14,3.63,3.7,12.29,9.95,17.76,10.35,12.92.94,12.7-26.42,2.18-38.87-4.22-5-7.71-6.03-12.75-8.49-1.74-.85-3.23-1.74-4.69-2.39-1.63,3.3-3.96,4.3-8.56,4.85h0Z"/>
    <path class="cls-5" d="m34.98,22.1c-3.67.4-7.93,1.38-9.89,3.42-5.05,5.27.61,22.94,15.39,20.1,6.53-1.25,11.66-6.96,11.53-14.69-.08-4.58-1.69-6.37-5.41-7.65-3.6-1.24-7.64-1.61-11.62-1.19h0Z"/>
    <path class="cls-4" d="m11.48,121.22l24.97.03v-29.26c-2.2,1.59-3,1.75-3.67,2.75-2.26,3.38-12.41,10.85-18.62,11.96-1.6.29-1.8-.11-1.99,1.37-.48,3.73-.52,9.25-.69,13.14h0Z"/>
    <path class="cls-4" d="m38.94,121.24h23.49s-.79-14.33-.79-14.33c-7.49-2.45-12.33-5.36-17.54-10.54l-1.6-1.84c-.8-1.13-.89-.42-3.43-2.56l-.13,29.26h0Z"/>
    <path class="cls-2" d="m22.38,14.73l.82,8.84c2.55-.81,4.63-3.9,14.18-4.09,3.76-.08,8.45.53,11.83,2.16,1.22.58,2.06,1.62,3.02,1.76l.92-8.66c-2.4-.97-14.31-7.56-15.45-7.56-1.04,0-13.1,6.62-15.32,7.55Z"/>
    <path class="cls-5" d="m28.83,84.85c.31,2.21,2.27,4.59,2.9,6.76,3.33-.36,4.13-3.1,4.32-6.66.12-2.29,1.45-17.26-.87-18.96-1.04,2.67-.58,7.55-1.55,10.87-.81,2.76-2.97,6.77-4.8,7.99Z"/>
    <path class="cls-5" d="m38.97,73.42l.38,11.55c.2,3.54.99,6.24,4.32,6.65l2.96-6.31-1.49-1.86c-5.82-8.37-3.21-11.9-4.89-17.52-1.55,1.3-1.29,5.64-1.28,7.49h0Z"/>
    <path class="cls-5" d="m42.38,47.76c-4.25.8-5.15.73-9.36.02,0,4.14-.01,6.21,4.68,6.28,4.52.07,4.69-2.26,4.69-6.3h0Z"/>
    <path class="cls-4" d="m44.81,52.3c-1.32,1.79-1.72,4.22-7.12,4.14-4.31-.06-5.45-1.62-7.13-4.16-3.17,2.81,6.32,7.54,12.55,4.08.9-.5,1.37-.85,1.85-1.61.87-1.38.74-1.76-.16-2.46Z"/>
    <path class="cls-5" d="m21.58,36.55c-.46-2.68-.77-3.69-.63-6.65-3.48,1.14-3.14,5.81.63,6.65Z"/>
    <path class="cls-5" d="m53.81,36.56c3.77-.83,4.13-5.54.64-6.66.13,2.86-.1,3.99-.64,6.66Z"/>
    <path class="cls-2" d="m33.26,38.3c.26,1,2.69,2.07,4.48,1.98,4.09-.22,4.72-3.5,2.82-3.15-.64.12-2.72,2.75-5.66.32-.78-.64-1.94-.31-1.64.85h0Z"/>
    <path class="cls-2" d="m45.86,29.15c-.17-1.13-1.79-2.35-2.98-2.24-2.73.25-3.15,3.96-1.88,3.57.42-.13,1.81-3.12,3.77-.36.52.73,1.29.36,1.09-.97h0Z"/>
    <path class="cls-2" d="m34.46,29.15c-.17-1.13-1.79-2.35-2.98-2.24-2.73.25-3.15,3.96-1.88,3.57.42-.13,1.81-3.12,3.77-.36.52.73,1.29.36,1.09-.97h0Z"/>
  </g>
</svg>