<?xml version="1.0" encoding="UTF-8"?>
<svg id="Layer_1" data-name="Layer 1" xmlns="http://www.w3.org/2000/svg" viewBox="0 0 128 128">
  <defs>
    <style>
      .cls-1 {
        fill: #fff;
      }

      .cls-2 {
        fill: #e6e6e6;
      }

      .cls-3 {
        fill: #cc6d98;
      }

      .cls-4 {
        fill: #459dbb;
      }

      .cls-5 {
        fill: #f2f2f2;
      }
    </style>
  </defs>
  <path class="cls-3" d="m57.6,106.67h-17.07c-1.18,0-2.13.96-2.13,2.13v17.07c0,1.18.96,2.13,2.13,2.13.46,0,.91-.15,1.28-.43l7.25-5.44,7.25,5.44c.65.48,1.52.56,2.24.19.72-.36,1.17-1.1,1.17-1.9v-17.07c0-1.18-.96-2.13-2.13-2.13Z"/>
  <rect class="cls-4" x="21.33" width="85.33" height="110.93" rx="6.4" ry="6.4"/>
  <path class="cls-2" d="m85.33,87.47h21.33v-25.6h-21.33c-7.07,0-12.8,5.73-12.8,12.8h0c0,7.07,5.73,12.8,12.8,12.8Z"/>
  <path class="cls-3" d="m85.33,83.2h21.33v-25.6h-21.33c-7.07,0-12.8,5.73-12.8,12.8h0c0,7.07,5.73,12.8,12.8,12.8Z"/>
  <circle class="cls-5" cx="85.33" cy="70.4" r="4.27"/>
  <path class="cls-3" d="m27.73,0h10.67v110.93h-10.67c-3.53,0-6.4-2.87-6.4-6.4V6.4c0-3.53,2.87-6.4,6.4-6.4Z"/>
  <g>
    <path class="cls-1" d="m51.92,23.84c0-1.5.33-2.53.99-3.08.66-.55,1.53-.83,2.62-.83h1.96c1,0,1.68-.36,2.05-1.09v6.65h1.28v2.36h-6.52v.9c0,.93-.33,1.7-.97,2.33-.49.49-1.05.79-1.69.91v1.39c-.74-1.73-1.78-2.97-3.14-3.7h2.52c.26,0,.47-.09.64-.27s.25-.4.25-.66v-4.9Zm5.36,1.64v-3.09h-1.89c-.29,0-.55.11-.76.32-.21.21-.32.61-.32,1.2v1.57h2.97Z"/>
    <path class="cls-1" d="m61.92,31.78l-1.79-1.81,1.79-1.81,1.81,1.81-1.81,1.81Zm-1.55-3.94v-2.36h2.14c.24,0,.45-.09.64-.28.17-.17.25-.38.25-.64v-1.79h-1.33c1.73-.75,2.97-1.79,3.7-3.14v4.93c0,.33-.04.64-.12.93h1.97v2.36h-7.26Zm5.14,3.94l-1.78-1.81,1.78-1.81,1.79,1.81-1.79,1.81Z"/>
    <path class="cls-1" d="m74.11,27.84h-7v-2.36h1.6c.16-.03.3-.11.43-.24.18-.18.27-.4.27-.66l.03-11.78c.73,1.34,1.95,2.38,3.67,3.12h-1.31v8.66c0,.33-.04.63-.12.9h2.43v2.36Z"/>
    <path class="cls-1" d="m84.86,27.84h-11.11v-2.36h2.03c-.19-.46-.28-1.06-.28-1.79,0-1.12.39-2.03,1.16-2.76.78-.72,1.67-1.09,2.69-1.1h1.09v-1.3c.73,1.71,1.77,2.94,3.12,3.67h-4.45c-.76.1-1.17.59-1.25,1.48,0,.48.14.9.42,1.25s.65.54,1.11.54h5.47v2.36Z"/>
    <path class="cls-1" d="m85.76,18.88l-1.78-1.81,1.78-1.81,1.81,1.81-1.81,1.81Zm-1.49,8.96v-2.36h2.17c.25,0,.46-.09.64-.28.18-.17.27-.38.27-.64v-1.79h-1.34c1.73-.75,2.97-1.79,3.7-3.14v4.93c0,.92-.32,1.69-.97,2.31-.63.65-1.4.97-2.3.97h-2.17Zm5.09-8.96l-1.79-1.81,1.79-1.81,1.78,1.81-1.78,1.81Z"/>
  </g>
  <g>
    <path class="cls-1" d="m46.05,42.13c0-1.5.33-2.53.99-3.08.66-.55,1.53-.83,2.62-.83h1.96c1,0,1.68-.36,2.05-1.09v6.65h1.28v2.36h-6.53v.9c0,.93-.32,1.7-.97,2.33-.49.49-1.05.79-1.69.91v1.39c-.74-1.73-1.78-2.97-3.14-3.7h2.52c.26,0,.47-.09.64-.27s.25-.4.25-.66v-4.9Zm5.36,1.64v-3.09h-1.89c-.29,0-.55.11-.76.32-.21.21-.32.61-.32,1.2v1.57h2.97Z"/>
    <path class="cls-1" d="m61.49,46.14h-7v-2.36h1.6c.16-.03.3-.11.43-.24.18-.18.27-.4.27-.66l.03-11.78c.73,1.34,1.95,2.38,3.67,3.12h-1.31v8.66c0,.33-.04.63-.12.9h2.43v2.36Z"/>
    <path class="cls-1" d="m72.24,46.14h-11.11v-2.36h2.03c-.19-.46-.28-1.06-.28-1.79,0-1.12.39-2.03,1.16-2.76.78-.72,1.67-1.09,2.69-1.1h1.09v-1.3c.73,1.71,1.77,2.94,3.12,3.67h-4.45c-.76.1-1.17.59-1.25,1.48,0,.48.14.9.42,1.25s.65.54,1.11.54h5.47v2.36Z"/>
    <path class="cls-1" d="m73.15,37.18l-1.79-1.81,1.79-1.81,1.81,1.81-1.81,1.81Zm-1.55,8.96v-2.36h2.14c.24,0,.45-.09.64-.28.17-.17.25-.38.25-.64v-1.79h-1.33c1.73-.75,2.97-1.79,3.7-3.14v4.93c0,.33-.04.64-.12.93h1.82v2.36h-7.11Zm5.14-8.96l-1.78-1.81,1.78-1.81,1.79,1.81-1.79,1.81Z"/>
    <path class="cls-1" d="m89.19,46.14h-10.95v-2.36h1.75v-1.64c0-1.5.33-2.53.99-3.08.66-.55,1.53-.83,2.62-.83h1.96c1,0,1.68-.36,2.05-1.09v6.65h1.58v2.36Zm-3.84-2.36v-3.09h-1.89c-.29,0-.55.11-.76.32-.21.21-.32.61-.32,1.2v1.57h2.97Z"/>
    <path class="cls-1" d="m91.21,31.1c.73,1.34,1.95,2.38,3.67,3.12h-1.31v8.63c0,.92-.32,1.69-.97,2.33-.65.64-1.42.96-2.31.96h-1.4v-2.36h1.4c.24,0,.45-.09.63-.27s.27-.4.27-.66l.03-11.75Z"/>
    <path class="cls-1" d="m97.23,46.14v-11.92h-1.31c1.72-.74,2.95-1.78,3.67-3.12l.03,15.04h-2.39Z"/>
  </g>
</svg>