<?xml version="1.0" encoding="UTF-8"?>
<svg id="Layer_1" data-name="Layer 1" xmlns="http://www.w3.org/2000/svg" viewBox="0 0 128 128">
  <defs>
    <style>
      .cls-1 {
        fill: #fed2a4;
      }

      .cls-1, .cls-2, .cls-3, .cls-4, .cls-5 {
        fill-rule: evenodd;
      }

      .cls-2 {
        fill: #ffe5c2;
      }

      .cls-3 {
        fill: #80af81;
      }

      .cls-4 {
        fill: #7fae80;
      }

      .cls-6, .cls-5 {
        fill: #030;
      }
    </style>
  </defs>
  <path class="cls-2" d="m12.79,40.78v5.06c0-3.52-2.86-6.38-6.4-6.38s-6.4,2.86-6.4,6.38v24.59c0,4.78,1.48,9.44,4.24,13.33l5.04,7.14c2.28,3.24,3.52,7.12,3.52,11.07v12.19c0,1.8,1.46,3.24,3.26,3.24h36.92v-15.55c0-3.94.94-7.82,2.76-11.29l2.1-4.06c1.8-3.5,2.76-7.38,2.76-11.29v-34.42s-47.8,0-47.8,0Z"/>
  <path class="cls-1" d="m54.25,40.7v34.44c0,3.94-.96,7.82-2.78,11.31l-2.12,4.06c-1.82,3.5-2.76,7.38-2.76,11.31v15.57h6.32v-15.57c0-3.94.94-7.82,2.78-11.31l2.12-4.06c1.82-3.5,2.78-7.38,2.78-11.31v-34.44h-6.34Z"/>
  <path class="cls-2" d="m48.78,40.78h11.79v-23.55c0-3.32-2.64-6.02-5.9-6.02s-5.9,2.7-5.9,6.02c0,0,0,23.55,0,23.55Zm-12.11,0h11.79V12.27c0-3.32-2.64-6.04-5.9-6.04s-5.9,2.7-5.9,6.04v28.51h0Z"/>
  <path class="cls-1" d="m54.67,11.21c-1.14,0-2.2.34-3.1.9,1.68,1.06,2.8,2.94,2.8,5.1v23.51h6.2v-23.51c0-3.32-2.64-6-5.9-6Zm-11.89-4.98c-1.1,0-2.12.3-3,.8,1.8,1.02,3,2.94,3,5.14v35.96c0,2.24,1.84,4.06,4.1,4.06,1.06,0,1.92-.84,1.92-1.9V12.19c0-3.28-2.68-5.96-6-5.96h-.02Z"/>
  <path class="cls-2" d="m24.87,42.78h11.79V12.61c0-3.52-2.64-6.38-5.9-6.38s-5.9,2.86-5.9,6.38v30.17h0Z"/>
  <path class="cls-1" d="m30.67,6.24c-1.1,0-2.12.3-3,.8,1.8,1.02,3,2.94,3,5.14v35.96c0,2.24,1.84,4.06,4.1,4.06,1.06,0,1.92-.84,1.92-1.9V12.19c0-3.28-2.68-5.96-6-5.96h-.02Z"/>
  <path class="cls-2" d="m12.75,41.14h11.79v-24.83c0-3.34-2.64-6.04-5.9-6.04s-5.9,2.7-5.9,6.04c0,0,0,24.83,0,24.83Z"/>
  <path class="cls-1" d="m18.85,9.96c-1.1,0-2.12.3-3,.8,1.8,1.04,3,2.96,3,5.18v32.48c0,2.26,1.84,4.08,4.1,4.08,1.06,0,1.92-.86,1.92-1.9V15.95c0-3.3-2.68-5.98-6-5.98l-.02-.02Z"/>
  <path class="cls-2" d="m121.34,39.46c-3.46.12-6.16,3.06-6.16,6.52v16.75-21.97h-47.78v34.42c0,3.94.94,7.82,2.76,11.29l2.1,4.06c1.8,3.5,2.76,7.38,2.76,11.29v15.55h36.92c1.8,0,3.26-1.46,3.26-3.24v-12.19c0-3.96,1.22-7.84,3.52-11.07l5.04-7.14c2.76-3.9,4.24-8.56,4.24-13.33v-24.59c0-3.6-2.98-6.5-6.62-6.38h0l-.04.02Z"/>
  <path class="cls-1" d="m121.3,39.16c-1.14,0-2.2.3-3.12.82,1.92,1.1,3.24,3.18,3.24,5.56v24.61c0,4.78-1.46,9.44-4.2,13.35l-5,7.14c-2.28,3.24-3.5,7.12-3.5,11.09v11.65h6.24v-11.65c0-3.98,1.22-7.84,3.5-11.09l5-7.14c2.74-3.9,4.2-8.58,4.2-13.35v-24.61c0-3.52-2.84-6.38-6.36-6.38h0Z"/>
  <path class="cls-2" d="m67.41,43.08v-25.39c0-3.58,2.64-6.48,5.9-6.48s5.9,2.9,5.9,6.48v25.39"/>
  <path class="cls-1" d="m73.51,11.21c-1.1,0-2.12.3-3,.8,1.8,1.04,3,2.96,3,5.16v30.93c0,1.92,1.56,3.48,3.5,3.48h.6c1.06,0,1.92-.86,1.92-1.9V17.17c0-3.3-2.7-5.98-6-5.98l-.02.02Z"/>
  <path class="cls-2" d="m79.52,49.42V12.19c0-3.28,2.64-5.96,5.9-5.96s5.9,2.66,5.9,5.96v38.14"/>
  <path class="cls-1" d="m85,6.24c-1.1,0-2.12.3-3,.8,1.8,1.02,3,2.94,3,5.14v36.54c0,1.92,1.56,3.46,3.5,3.46h.6c1.06,0,1.92-.84,1.92-1.9V12.19c0-3.28-2.7-5.96-6-5.96h-.02Z"/>
  <path class="cls-2" d="m91.32,44.54V12.91c0-3.7,2.64-6.68,5.9-6.68s5.9,3,5.9,6.68v31.63"/>
  <path class="cls-1" d="m97.11,6.24c-1.1,0-2.12.3-3,.8,1.8,1.02,3,2.94,3,5.14v37.24c0,1.52,1.26,2.76,2.78,2.76h1.3c1.06,0,1.92-.84,1.92-1.9V12.19c0-3.28-2.7-5.96-6-5.96Z"/>
  <path class="cls-2" d="m103.11,50.64V15.95c0-3.3,2.64-6,5.9-6s5.9,2.68,5.9,6v24.63"/>
  <path class="cls-1" d="m109.33,10.28c-1.14,0-2.2.34-3.1.9,1.68,1.04,2.8,2.92,2.8,5.06v30.71l6.2-6.24v-24.49c0-3.28-2.64-5.96-5.9-5.96h0v.02Z"/>
  <path class="cls-4" d="m11.51,104.67h43.46c1.56,0,2.8,1.28,2.8,2.86v11.37c0,1.58-1.26,2.86-2.8,2.86H11.51c-1.54,0-2.8-1.28-2.8-2.86v-11.37c0-1.58,1.26-2.86,2.8-2.86h0Z"/>
  <path class="cls-5" d="m55.11,104.67h-6.58c1.52,0,2.74,1.28,2.74,2.86v11.37c0,1.58-1.24,2.86-2.74,2.86h6.58c1.52,0,2.74-1.28,2.74-2.86v-11.37c0-1.58-1.22-2.86-2.74-2.86Z"/>
  <path class="cls-3" d="m73.01,104.67h43.46c1.56,0,2.8,1.28,2.8,2.86v11.37c0,1.58-1.26,2.86-2.8,2.86h-43.46c-1.54,0-2.8-1.28-2.8-2.86v-11.37c0-1.58,1.26-2.86,2.8-2.86Z"/>
  <path class="cls-5" d="m116.49,104.67h-6.54c1.54,0,2.78,1.28,2.78,2.86v11.37c0,1.58-1.26,2.86-2.78,2.86h6.54c1.54,0,2.78-1.28,2.78-2.86v-11.37c0-1.58-1.26-2.86-2.78-2.86Z"/>
  <path class="cls-1" d="m108.67,40.7v19.69c0,1.3-.54,2.56-1.46,3.46l-7.42,7.22c-2.56,2.5-4.44,5.62-5.44,9.06l-.78,2.7c-.34,1.2.34,2.46,1.54,2.82,1.2.34,2.46-.34,2.82-1.56l.78-2.7c.78-2.68,2.24-5.12,4.22-7.06l10.52-10.22c.94-.9,1.46-2.16,1.46-3.46v-19.95h-6.26.02ZM27.89,82.84l-.78-2.7c-1-3.44-2.9-6.56-5.48-9.06l-7.48-7.2c-.94-.9-1.48-2.16-1.48-3.46v-14.45c0-3.42-2.66-6.34-6.08-6.52-1.28-.06-2.46.24-3.48.82,1.94,1.1,3.26,3.16,3.26,5.54v14.85c0,1.3.54,2.54,1.48,3.46l10.6,10.22c2,1.94,3.48,4.38,4.26,7.04l.78,2.7c.36,1.2,1.62,1.9,2.82,1.56,1.22-.34,1.92-1.6,1.56-2.8h.02Z"/>
  <g>
    <circle class="cls-6" cx="19.33" cy="113.29" r="3.38"/>
    <circle class="cls-6" cx="108.95" cy="113.29" r="3.38"/>
  </g>
</svg>