<?xml version="1.0" encoding="UTF-8"?>
<svg id="Layer_1" data-name="Layer 1" xmlns="http://www.w3.org/2000/svg" viewBox="0 0 128 128">
  <defs>
    <style>
      .cls-1 {
        fill: #fed2a4;
      }

      .cls-1, .cls-2, .cls-3, .cls-4, .cls-5, .cls-6, .cls-7, .cls-8, .cls-9, .cls-10, .cls-11 {
        fill-rule: evenodd;
      }

      .cls-2 {
        fill: #818181;
      }

      .cls-3 {
        fill: #ffe5c2;
      }

      .cls-4 {
        fill: #fff9d8;
      }

      .cls-5 {
        fill: #7fae80;
      }

      .cls-6 {
        fill: #9f6e50;
      }

      .cls-7 {
        fill: #050505;
      }

      .cls-8 {
        fill: #1a5319;
      }

      .cls-9 {
        fill: #ffe06e;
      }

      .cls-10 {
        fill: #88533a;
      }

      .cls-11 {
        fill: #595959;
      }
    </style>
  </defs>
  <g id="Layer_1-2" data-name="Layer 1-2">
    <g>
      <path class="cls-2" d="m4.48,122.31h119.28c2.66,0,4.73-2.36,4.14-5.02l-3.55-18.05c-.3-2.07-2.07-3.25-4.14-3.25H7.74c-2.07,0-3.84,1.48-4.14,3.25L.03,117.28c-.3,2.36,1.77,5.02,4.43,5.02h.02Z"/>
      <path class="cls-11" d="m.32,116.99l3.55-18.05c.3-2.07,2.07-3.25,4.14-3.25h5.91c-2.07,0-3.84,1.48-4.14,3.25l-3.55,18.05c-.59,2.66,1.48,5.02,4.14,5.02h-5.89c-2.66.3-4.73-2.36-4.14-5.02h-.02Z"/>
      <path class="cls-5" d="m58.05,100.12l-32.85,9.48c-6.8,0-12.14-5.32-12.14-12.14v-30.79c0-7.98,2.66-15.98,7.68-22.19,3.55-4.43,8.59-8.28,15.1-8.28h9.48v40.54c0,2.07,1.77,3.84,3.84,3.84h9.19l2.07,10.07-2.36,9.48h0v-.02Z"/>
      <path class="cls-8" d="m20.74,44.75c3.55-4.43,8.59-8.28,15.1-8.28h4.43c-5.62.59-10.37,4.14-13.62,8.28-5.02,6.21-7.68,14.21-7.68,22.19v30.79c0,6.8,5.32,12.14,12.14,12.14h-5.91c-6.8,0-12.14-5.32-12.14-12.14v-31.08c0-7.98,2.66-15.69,7.68-21.9h0Z"/>
      <path class="cls-6" d="m79.95,90.04v10.66c0,5.02-4.14,8.89-8.89,8.89h-12.73v-28.72h12.44c5.02,0,9.19,4.14,9.19,9.19h0v-.02Z"/>
      <path class="cls-10" d="m63.96,80.86h-5.91v28.72h5.91v-28.72Z"/>
      <path class="cls-3" d="m30.81,99.53h5.91l.89,5.02-.89,5.02h-4.14l-3.25,3.84c-.3.3-.59.59-1.18.59h-4.14c-1.18,0-1.77-1.18-1.48-2.07l3.55-9.48c.59-1.77,2.66-2.96,4.73-2.96v.02Z"/>
      <path class="cls-1" d="m22.24,111.94l3.55-9.48c.89-2.07,2.66-3.25,4.73-3.25h5.32c-2.07,0-3.84,1.18-4.73,3.25l-3.55,9.48c-.3.89,0,1.77.89,2.07h-4.73c-.89,0-1.77-1.18-1.48-2.07h0Z"/>
      <path class="cls-6" d="m69.58,109.58h-32.85v-11.85c0-1.18.89-2.07,2.07-2.07h30.79v13.91h0Z"/>
      <path class="cls-10" d="m38.82,95.66h5.91c-1.18,0-2.07.89-2.07,2.07v11.85h-5.91v-11.85c0-1.18.89-2.07,2.07-2.07Z"/>
      <path class="cls-4" d="m91.5,114.6h19.83c1.18,0,1.77-.89,1.77-2.07l-1.18-7.98c0-.89-.89-1.48-1.77-1.48h-18.64c-.89,0-1.77.89-1.77,1.77v7.98c0,.89.89,1.77,1.77,1.77Z"/>
      <path class="cls-9" d="m91.5,103.07h5.91c-.89,0-1.77.89-1.77,1.77v7.98c0,.89.89,1.77,1.77,1.77h-5.91c-.89,0-1.77-.89-1.77-1.77v-7.98c0-.89.89-1.77,1.77-1.77Z"/>
      <path class="cls-3" d="m49.75,38.84h0c-8.89,2.36-17.76-2.66-20.12-11.55l-.89-3.25,10.37-7.09,15.1-.3,2.66,10.07c1.18,5.02-1.77,10.66-7.09,12.14h0l-.02-.02Z"/>
      <path class="cls-1" d="m33.77,20.49l.89,3.55.89,3.25c1.77,6.21,6.8,10.66,12.73,11.85-8.28,1.48-16.57-3.55-18.64-11.85l-.89-3.25c0-.3,5.02-3.55,5.02-3.55Z"/>
      <path class="cls-8" d="m27.27,92.11c.59,0,.89-.3,1.48-.59l7.68-7.68c.89-.89.89-2.07,0-2.66-.89-.89-2.07-.89-2.66,0l-7.68,7.68c-.89.89-.89,2.07,0,2.66.3.3.59.59,1.18.59h0Z"/>
      <path class="cls-3" d="m78.76,55.42l-.3-2.96c0-.89-1.18-1.18-1.48-.59l-3.55,3.25c-.59.59-1.18.89-1.77.89l-5.32,1.77v5.02l3.25,3.84,7.39-7.09c1.18-.89,1.77-2.66,1.77-4.14h0Z"/>
      <path class="cls-5" d="m33.18,45.34h0c3.25-1.18,6.8.3,7.98,3.55l5.02,13.32,17.17-6.5c1.18-.3,2.36,0,2.66,1.18l3.55,9.48-23.96,8.89c-3.84,1.48-7.98-.59-9.19-4.14l-6.8-18.35c-1.18-2.66.3-6.21,3.55-7.39l.02-.05Z"/>
      <path class="cls-8" d="m33.18,45.34h0c1.77-.59,3.55-.59,5.32.3-2.66,1.48-4.14,4.73-2.96,7.39l6.8,18.35c.59,1.77,1.18,3.07,2.96,3.96v.57c-3.87,1.48-7.68-.66-8.89-4.21l-6.8-18.35c-1.18-3.25.3-6.8,3.55-7.98l.02-.02Z"/>
      <path class="cls-2" d="m83.2,51.57l-16.28,9.78-2.96-4.43,14.8-8.59s4.43,3.25,4.43,3.25Z"/>
      <path class="cls-7" d="m54.8,18.42l-26.06,7.98-3.55-12.14,25.74-8.57,3.84,12.73h.02Z"/>
    </g>
  </g>
</svg>